<svg xmlns="http://www.w3.org/2000/svg" viewBox="-24 -24 902 148" width="902" height="148" role="img" aria-label="ANANT VOX">
  <title>ANANT VOX</title>
  <defs>
    <linearGradient id="avGrad" gradientUnits="userSpaceOnUse" x1="0" y1="0" x2="854" y2="0">
      <stop offset="0" stop-color="#a855f7"/><stop offset="0.55" stop-color="#8f6ae0"/><stop offset="1" stop-color="#e0b34a"/>
    </linearGradient>
  </defs>
  <g fill="none" stroke="url(#avGrad)" stroke-width="13" stroke-linecap="square" stroke-linejoin="miter" stroke-miterlimit="8">
    <path d="M 0,100 L 36,0 L 72,100"/><path d="M 10.8,70 L 61.2,70"/><path d="M 106,100 L 106,0 L 174,100 L 174,0"/><path d="M 212,100 L 248,0 L 284,100"/><path d="M 222.8,70 L 273.2,70"/><path d="M 318,100 L 318,0 L 386,100 L 386,0"/><path d="M 424,0 L 496,0 M 460,0 L 460,100"/><path d="M 570,0 L 606,100 L 642,0"/><rect x="682.5" y="6.5" width="59" height="87" rx="26"/><path d="M 782,0 L 854,100 M 854,0 L 782,100"/>
  </g>
</svg>